<svg width="358" height="120" viewBox="0 0 358 120" fill="none" xmlns="http://www.w3.org/2000/svg">
<path d="M85.0525 70.9764L66.6083 39.1775C62.583 32.5553 52.6694 32.4956 48.7642 39.4759L29.4183 72.5275C25.8135 78.6129 30.2595 86.1897 37.5291 86.1897H76.4011C83.671 86.2493 89.1383 78.3743 85.0525 70.9764Z" fill="#003087"/>
<path d="M58.4373 73.4821L57.2958 71.5133C56.2144 69.6639 53.8712 65.7263 53.8712 65.7263L38.2504 38.76C34.225 32.794 24.6121 32.257 20.5868 39.8339L2.38243 71.0957C-1.40264 77.6583 3.1034 86.1897 11.2743 86.2493H49.906H66.3678H76.1612C66.1876 86.3091 63.0036 81.1186 58.4373 73.4821Z" fill="#1877F2"/>
<path d="M58.4372 73.3628L57.2957 71.3939C56.2142 69.5445 53.8711 65.607 53.8711 65.607L43.7776 47.9476L29.2982 72.5275C25.6934 78.6128 30.1393 86.1897 37.4091 86.1897H49.8457H66.3078H76.161C66.1275 86.1301 63.0034 81.0589 58.4372 73.3628Z" fill="url(#paint0_linear_1572_91)"/>
<path d="M325.178 47.8536C327.881 45.3479 332.627 44.1547 339.537 44.1547H355.699V35.0267H336.593C332.027 35.0267 328.181 35.504 325.178 36.4586C322.233 37.4131 319.65 38.9046 317.427 40.9927C315.084 43.2598 313.221 46.0638 311.9 49.4048C310.578 52.8054 309.917 56.5043 309.917 60.3823C309.917 64.0812 310.578 67.6608 311.9 70.9421C313.221 74.2234 315.084 77.0871 317.427 79.3541C319.59 81.4422 322.173 82.9337 325.057 83.8883C328.001 84.8429 331.906 85.3202 336.593 85.3202H355.699V76.3115H339.537C335.872 76.3115 333.348 76.1922 331.906 75.8938C330.404 75.5956 329.023 75.1183 327.881 74.4023C325.598 72.9705 323.855 71.121 322.714 68.7943C321.633 66.5272 321.092 63.6636 321.092 60.3226C321.092 54.5952 322.474 50.3594 325.178 47.8536Z" fill="black"/>
<path d="M184.529 85.4395H229.59V76.6098H195.524V64.0215H225.264V55.6691H195.524V43.9757H229.59V35.0864H184.529V85.4395Z" fill="black"/>
<path d="M240.825 35.0864L261.913 60.2629L240.825 85.4395H254.463L271.105 65.513V55.0725L254.463 35.0864H240.825Z" fill="black"/>
<path d="M292.013 35.0864L275.371 55.0725V65.513L292.013 85.4395H305.652L284.503 60.2629L305.652 35.0864H292.013Z" fill="black"/>
<path d="M140.371 59.905L120.124 35.0864H109.67V85.4395H120.665V51.8509L138.208 72.7319H142.474L160.017 51.6719V85.4395H171.012V35.0864H160.678L140.371 59.905Z" fill="black"/>
<defs>
<linearGradient id="paint0_linear_1572_91" x1="24.1306" y1="61.3876" x2="68.9385" y2="78.0622" gradientUnits="userSpaceOnUse">
<stop stop-color="#003087" stop-opacity="0"/>
<stop offset="1" stop-color="#003087"/>
</linearGradient>
</defs>
</svg>
